<?xml version="1.0" encoding="UTF-8" standalone="no"?>
<!DOCTYPE svg PUBLIC "-//W3C//DTD SVG 1.1//EN"
 "http://www.w3.org/Graphics/SVG/1.1/DTD/svg11.dtd">
<!-- Generated by graphviz version 2.40.1 (20161225.0304)
 -->
<!-- Title: controllers_diagram Pages: 1 -->
<svg width="975pt" height="958pt"
 viewBox="0.00 0.00 975.30 958.00" xmlns="http://www.w3.org/2000/svg" xmlns:xlink="http://www.w3.org/1999/xlink">
<g id="graph0" class="graph" transform="scale(1 1) rotate(0) translate(4 954)">
<title>controllers_diagram</title>
<polygon fill="transparent" stroke="transparent" points="-4,4 -4,-954 971.2969,-954 971.2969,4 -4,4"/>
<!-- _diagram_info -->
<g id="node1" class="node">
<title>_diagram_info</title>
<text text-anchor="start" x="637" y="-79.6" font-family="Times,serif" font-size="13.00" fill="#000000">Controllers diagram</text>
<text text-anchor="start" x="637" y="-66.6" font-family="Times,serif" font-size="13.00" fill="#000000">Date: Jan 11 2018 &#45; 02:46</text>
<text text-anchor="start" x="637" y="-53.6" font-family="Times,serif" font-size="13.00" fill="#000000">Generated by RailRoady 1.5.3</text>
<text text-anchor="start" x="637" y="-40.6" font-family="Times,serif" font-size="13.00" fill="#000000">http://railroady.prestonlee.com</text>
</g>
<!-- AgentsController -->
<g id="node2" class="node">
<title>AgentsController</title>
<path fill="none" stroke="#000000" d="M709,-136.5C709,-136.5 803.6416,-136.5 803.6416,-136.5 809.6416,-136.5 815.6416,-142.5 815.6416,-148.5 815.6416,-148.5 815.6416,-326.5 815.6416,-326.5 815.6416,-332.5 809.6416,-338.5 803.6416,-338.5 803.6416,-338.5 709,-338.5 709,-338.5 703,-338.5 697,-332.5 697,-326.5 697,-326.5 697,-148.5 697,-148.5 697,-142.5 703,-136.5 709,-136.5"/>
<text text-anchor="middle" x="756.3208" y="-323.3" font-family="Times,serif" font-size="14.00" fill="#000000">AgentsController</text>
<polyline fill="none" stroke="#000000" points="697,-316.5 815.6416,-316.5 "/>
<text text-anchor="start" x="705" y="-301.3" font-family="Times,serif" font-size="14.00" fill="#000000">index</text>
<text text-anchor="start" x="705" y="-287.3" font-family="Times,serif" font-size="14.00" fill="#000000">call</text>
<text text-anchor="start" x="705" y="-273.3" font-family="Times,serif" font-size="14.00" fill="#000000">edit</text>
<text text-anchor="start" x="705" y="-259.3" font-family="Times,serif" font-size="14.00" fill="#000000">apipie_validations</text>
<text text-anchor="start" x="705" y="-245.3" font-family="Times,serif" font-size="14.00" fill="#000000">intro</text>
<text text-anchor="start" x="705" y="-231.3" font-family="Times,serif" font-size="14.00" fill="#000000">show</text>
<text text-anchor="start" x="705" y="-217.3" font-family="Times,serif" font-size="14.00" fill="#000000">update</text>
<polyline fill="none" stroke="#000000" points="697,-210.5 815.6416,-210.5 "/>
<polyline fill="none" stroke="#000000" points="697,-186.5 815.6416,-186.5 "/>
<text text-anchor="start" x="705" y="-171.3" font-family="Times,serif" font-size="14.00" fill="#000000">_layout</text>
<text text-anchor="start" x="705" y="-157.3" font-family="Times,serif" font-size="14.00" fill="#000000">agent_params</text>
<text text-anchor="start" x="705" y="-143.3" font-family="Times,serif" font-size="14.00" fill="#000000">cal_percentile</text>
</g>
<!-- Api::V1::AgentsController -->
<g id="node3" class="node">
<title>Api::V1::AgentsController</title>
<path fill="none" stroke="#000000" d="M505,-170.5C505,-170.5 647.876,-170.5 647.876,-170.5 653.876,-170.5 659.876,-176.5 659.876,-182.5 659.876,-182.5 659.876,-290.5 659.876,-290.5 659.876,-296.5 653.876,-302.5 647.876,-302.5 647.876,-302.5 505,-302.5 505,-302.5 499,-302.5 493,-296.5 493,-290.5 493,-290.5 493,-182.5 493,-182.5 493,-176.5 499,-170.5 505,-170.5"/>
<text text-anchor="middle" x="576.438" y="-287.3" font-family="Times,serif" font-size="14.00" fill="#000000">Api::V1::AgentsController</text>
<polyline fill="none" stroke="#000000" points="493,-280.5 659.876,-280.5 "/>
<text text-anchor="start" x="501" y="-265.3" font-family="Times,serif" font-size="14.00" fill="#000000">apipie_validations</text>
<text text-anchor="start" x="501" y="-251.3" font-family="Times,serif" font-size="14.00" fill="#000000">average</text>
<text text-anchor="start" x="501" y="-237.3" font-family="Times,serif" font-size="14.00" fill="#000000">search</text>
<text text-anchor="start" x="501" y="-223.3" font-family="Times,serif" font-size="14.00" fill="#000000">show</text>
<polyline fill="none" stroke="#000000" points="493,-216.5 659.876,-216.5 "/>
<polyline fill="none" stroke="#000000" points="493,-192.5 659.876,-192.5 "/>
<text text-anchor="start" x="501" y="-177.3" font-family="Times,serif" font-size="14.00" fill="#000000">_layout</text>
</g>
<!-- Api::V1::CommentsController -->
<g id="node4" class="node">
<title>Api::V1::CommentsController</title>
<path fill="none" stroke="#000000" d="M284,-578.5C284,-578.5 447.8828,-578.5 447.8828,-578.5 453.8828,-578.5 459.8828,-584.5 459.8828,-590.5 459.8828,-590.5 459.8828,-768.5 459.8828,-768.5 459.8828,-774.5 453.8828,-780.5 447.8828,-780.5 447.8828,-780.5 284,-780.5 284,-780.5 278,-780.5 272,-774.5 272,-768.5 272,-768.5 272,-590.5 272,-590.5 272,-584.5 278,-578.5 284,-578.5"/>
<text text-anchor="middle" x="365.9414" y="-765.3" font-family="Times,serif" font-size="14.00" fill="#000000">Api::V1::CommentsController</text>
<polyline fill="none" stroke="#000000" points="272,-758.5 459.8828,-758.5 "/>
<text text-anchor="start" x="280" y="-743.3" font-family="Times,serif" font-size="14.00" fill="#000000">apipie_validations</text>
<text text-anchor="start" x="280" y="-729.3" font-family="Times,serif" font-size="14.00" fill="#000000">create</text>
<text text-anchor="start" x="280" y="-715.3" font-family="Times,serif" font-size="14.00" fill="#000000">destroy</text>
<text text-anchor="start" x="280" y="-701.3" font-family="Times,serif" font-size="14.00" fill="#000000">index</text>
<text text-anchor="start" x="280" y="-687.3" font-family="Times,serif" font-size="14.00" fill="#000000">show</text>
<text text-anchor="start" x="280" y="-673.3" font-family="Times,serif" font-size="14.00" fill="#000000">update</text>
<polyline fill="none" stroke="#000000" points="272,-666.5 459.8828,-666.5 "/>
<polyline fill="none" stroke="#000000" points="272,-642.5 459.8828,-642.5 "/>
<text text-anchor="start" x="280" y="-627.3" font-family="Times,serif" font-size="14.00" fill="#000000">_layout</text>
<text text-anchor="start" x="280" y="-613.3" font-family="Times,serif" font-size="14.00" fill="#000000">comment_params</text>
<text text-anchor="start" x="280" y="-599.3" font-family="Times,serif" font-size="14.00" fill="#000000">get_comment</text>
<text text-anchor="start" x="280" y="-585.3" font-family="Times,serif" font-size="14.00" fill="#000000">get_model</text>
</g>
<!-- Api::V1::CustomersController -->
<g id="node5" class="node">
<title>Api::V1::CustomersController</title>
<path fill="none" stroke="#000000" d="M709,-374.5C709,-374.5 872.1035,-374.5 872.1035,-374.5 878.1035,-374.5 884.1035,-380.5 884.1035,-386.5 884.1035,-386.5 884.1035,-494.5 884.1035,-494.5 884.1035,-500.5 878.1035,-506.5 872.1035,-506.5 872.1035,-506.5 709,-506.5 709,-506.5 703,-506.5 697,-500.5 697,-494.5 697,-494.5 697,-386.5 697,-386.5 697,-380.5 703,-374.5 709,-374.5"/>
<text text-anchor="middle" x="790.5518" y="-491.3" font-family="Times,serif" font-size="14.00" fill="#000000">Api::V1::CustomersController</text>
<polyline fill="none" stroke="#000000" points="697,-484.5 884.1035,-484.5 "/>
<text text-anchor="start" x="705" y="-469.3" font-family="Times,serif" font-size="14.00" fill="#000000">apipie_validations</text>
<text text-anchor="start" x="705" y="-455.3" font-family="Times,serif" font-size="14.00" fill="#000000">call</text>
<text text-anchor="start" x="705" y="-441.3" font-family="Times,serif" font-size="14.00" fill="#000000">groups</text>
<polyline fill="none" stroke="#000000" points="697,-434.5 884.1035,-434.5 "/>
<polyline fill="none" stroke="#000000" points="697,-410.5 884.1035,-410.5 "/>
<text text-anchor="start" x="705" y="-395.3" font-family="Times,serif" font-size="14.00" fill="#000000">_layout</text>
<text text-anchor="start" x="705" y="-381.3" font-family="Times,serif" font-size="14.00" fill="#000000">helper_params</text>
</g>
<!-- Api::V1::HousesController -->
<g id="node6" class="node">
<title>Api::V1::HousesController</title>
<path fill="none" stroke="#000000" d="M505,-340.5C505,-340.5 649.4346,-340.5 649.4346,-340.5 655.4346,-340.5 661.4346,-346.5 661.4346,-352.5 661.4346,-352.5 661.4346,-544.5 661.4346,-544.5 661.4346,-550.5 655.4346,-556.5 649.4346,-556.5 649.4346,-556.5 505,-556.5 505,-556.5 499,-556.5 493,-550.5 493,-544.5 493,-544.5 493,-352.5 493,-352.5 493,-346.5 499,-340.5 505,-340.5"/>
<text text-anchor="middle" x="577.2173" y="-541.3" font-family="Times,serif" font-size="14.00" fill="#000000">Api::V1::HousesController</text>
<polyline fill="none" stroke="#000000" points="493,-534.5 661.4346,-534.5 "/>
<text text-anchor="start" x="501" y="-519.3" font-family="Times,serif" font-size="14.00" fill="#000000">recommend</text>
<text text-anchor="start" x="501" y="-505.3" font-family="Times,serif" font-size="14.00" fill="#000000">destroy</text>
<text text-anchor="start" x="501" y="-491.3" font-family="Times,serif" font-size="14.00" fill="#000000">index</text>
<text text-anchor="start" x="501" y="-477.3" font-family="Times,serif" font-size="14.00" fill="#000000">create</text>
<text text-anchor="start" x="501" y="-463.3" font-family="Times,serif" font-size="14.00" fill="#000000">search</text>
<text text-anchor="start" x="501" y="-449.3" font-family="Times,serif" font-size="14.00" fill="#000000">show</text>
<text text-anchor="start" x="501" y="-435.3" font-family="Times,serif" font-size="14.00" fill="#000000">update</text>
<polyline fill="none" stroke="#000000" points="493,-428.5 661.4346,-428.5 "/>
<polyline fill="none" stroke="#000000" points="493,-404.5 661.4346,-404.5 "/>
<text text-anchor="start" x="501" y="-389.3" font-family="Times,serif" font-size="14.00" fill="#000000">_layout</text>
<text text-anchor="start" x="501" y="-375.3" font-family="Times,serif" font-size="14.00" fill="#000000">get_house</text>
<text text-anchor="start" x="501" y="-361.3" font-family="Times,serif" font-size="14.00" fill="#000000">get_model</text>
<text text-anchor="start" x="501" y="-347.3" font-family="Times,serif" font-size="14.00" fill="#000000">house_params</text>
</g>
<!-- Api::V1::TipsController -->
<g id="node7" class="node">
<title>Api::V1::TipsController</title>
<path fill="none" stroke="#000000" d="M760,-663.5C760,-663.5 887.6182,-663.5 887.6182,-663.5 893.6182,-663.5 899.6182,-669.5 899.6182,-675.5 899.6182,-675.5 899.6182,-783.5 899.6182,-783.5 899.6182,-789.5 893.6182,-795.5 887.6182,-795.5 887.6182,-795.5 760,-795.5 760,-795.5 754,-795.5 748,-789.5 748,-783.5 748,-783.5 748,-675.5 748,-675.5 748,-669.5 754,-663.5 760,-663.5"/>
<text text-anchor="middle" x="823.8091" y="-780.3" font-family="Times,serif" font-size="14.00" fill="#000000">Api::V1::TipsController</text>
<polyline fill="none" stroke="#000000" points="748,-773.5 899.6182,-773.5 "/>
<text text-anchor="start" x="756" y="-758.3" font-family="Times,serif" font-size="14.00" fill="#000000">apipie_validations</text>
<text text-anchor="start" x="756" y="-744.3" font-family="Times,serif" font-size="14.00" fill="#000000">index</text>
<text text-anchor="start" x="756" y="-730.3" font-family="Times,serif" font-size="14.00" fill="#000000">recommend</text>
<text text-anchor="start" x="756" y="-716.3" font-family="Times,serif" font-size="14.00" fill="#000000">regions</text>
<polyline fill="none" stroke="#000000" points="748,-709.5 899.6182,-709.5 "/>
<polyline fill="none" stroke="#000000" points="748,-685.5 899.6182,-685.5 "/>
<text text-anchor="start" x="756" y="-670.3" font-family="Times,serif" font-size="14.00" fill="#000000">_layout</text>
</g>
<!-- Api::V1::UsersController -->
<g id="node8" class="node">
<title>Api::V1::UsersController</title>
<path fill="none" stroke="#000000" d="M97,-578.5C97,-578.5 232.0967,-578.5 232.0967,-578.5 238.0967,-578.5 244.0967,-584.5 244.0967,-590.5 244.0967,-590.5 244.0967,-684.5 244.0967,-684.5 244.0967,-690.5 238.0967,-696.5 232.0967,-696.5 232.0967,-696.5 97,-696.5 97,-696.5 91,-696.5 85,-690.5 85,-684.5 85,-684.5 85,-590.5 85,-590.5 85,-584.5 91,-578.5 97,-578.5"/>
<text text-anchor="middle" x="164.5483" y="-681.3" font-family="Times,serif" font-size="14.00" fill="#000000">Api::V1::UsersController</text>
<polyline fill="none" stroke="#000000" points="85,-674.5 244.0967,-674.5 "/>
<text text-anchor="start" x="93" y="-659.3" font-family="Times,serif" font-size="14.00" fill="#000000">apipie_validations</text>
<text text-anchor="start" x="93" y="-645.3" font-family="Times,serif" font-size="14.00" fill="#000000">check_code</text>
<text text-anchor="start" x="93" y="-631.3" font-family="Times,serif" font-size="14.00" fill="#000000">slides</text>
<polyline fill="none" stroke="#000000" points="85,-624.5 244.0967,-624.5 "/>
<polyline fill="none" stroke="#000000" points="85,-600.5 244.0967,-600.5 "/>
<text text-anchor="start" x="93" y="-585.3" font-family="Times,serif" font-size="14.00" fill="#000000">_layout</text>
</g>
<!-- ApplicationController -->
<g id="node9" class="node">
<title>ApplicationController</title>
<path fill="none" stroke="#000000" d="M828,-833.5C828,-833.5 955.2969,-833.5 955.2969,-833.5 961.2969,-833.5 967.2969,-839.5 967.2969,-845.5 967.2969,-845.5 967.2969,-937.5 967.2969,-937.5 967.2969,-943.5 961.2969,-949.5 955.2969,-949.5 955.2969,-949.5 828,-949.5 828,-949.5 822,-949.5 816,-943.5 816,-937.5 816,-937.5 816,-845.5 816,-845.5 816,-839.5 822,-833.5 828,-833.5"/>
<text text-anchor="middle" x="891.6484" y="-934.3" font-family="Times,serif" font-size="14.00" fill="#000000">ApplicationController</text>
<polyline fill="none" stroke="#000000" points="816,-927.5 967.2969,-927.5 "/>
<text text-anchor="start" x="824" y="-912.3" font-family="Times,serif" font-size="14.00" fill="#000000">after_sign_in_path_for</text>
<text text-anchor="start" x="824" y="-898.3" font-family="Times,serif" font-size="14.00" fill="#000000">after_sign_out_path_for</text>
<polyline fill="none" stroke="#000000" points="816,-891.5 967.2969,-891.5 "/>
<text text-anchor="start" x="824" y="-876.3" font-family="Times,serif" font-size="14.00" fill="#000000">current_user</text>
<text text-anchor="start" x="824" y="-862.3" font-family="Times,serif" font-size="14.00" fill="#000000">default_meta_tags</text>
<polyline fill="none" stroke="#000000" points="816,-855.5 967.2969,-855.5 "/>
<text text-anchor="start" x="824" y="-840.3" font-family="Times,serif" font-size="14.00" fill="#000000">_layout</text>
</g>
<!-- AppsController -->
<g id="node10" class="node">
<title>AppsController</title>
<path fill="none" stroke="#000000" d="M845,-.5C845,-.5 924.1035,-.5 924.1035,-.5 930.1035,-.5 936.1035,-6.5 936.1035,-12.5 936.1035,-12.5 936.1035,-78.5 936.1035,-78.5 936.1035,-84.5 930.1035,-90.5 924.1035,-90.5 924.1035,-90.5 845,-90.5 845,-90.5 839,-90.5 833,-84.5 833,-78.5 833,-78.5 833,-12.5 833,-12.5 833,-6.5 839,-.5 845,-.5"/>
<text text-anchor="middle" x="884.5518" y="-75.3" font-family="Times,serif" font-size="14.00" fill="#000000">AppsController</text>
<polyline fill="none" stroke="#000000" points="833,-68.5 936.1035,-68.5 "/>
<text text-anchor="start" x="841" y="-53.3" font-family="Times,serif" font-size="14.00" fill="#000000">index</text>
<polyline fill="none" stroke="#000000" points="833,-46.5 936.1035,-46.5 "/>
<polyline fill="none" stroke="#000000" points="833,-22.5 936.1035,-22.5 "/>
<text text-anchor="start" x="841" y="-7.3" font-family="Times,serif" font-size="14.00" fill="#000000">_layout</text>
</g>
<!-- Buttercms::AuthorsController -->
<g id="node11" class="node">
<title>Buttercms::AuthorsController</title>
<path fill="none" stroke="#000000" d="M420,-51.5C420,-51.5 579.9795,-51.5 579.9795,-51.5 585.9795,-51.5 591.9795,-57.5 591.9795,-63.5 591.9795,-63.5 591.9795,-129.5 591.9795,-129.5 591.9795,-135.5 585.9795,-141.5 579.9795,-141.5 579.9795,-141.5 420,-141.5 420,-141.5 414,-141.5 408,-135.5 408,-129.5 408,-129.5 408,-63.5 408,-63.5 408,-57.5 414,-51.5 420,-51.5"/>
<text text-anchor="middle" x="499.9897" y="-126.3" font-family="Times,serif" font-size="14.00" fill="#000000">Buttercms::AuthorsController</text>
<polyline fill="none" stroke="#000000" points="408,-119.5 591.9795,-119.5 "/>
<text text-anchor="start" x="416" y="-104.3" font-family="Times,serif" font-size="14.00" fill="#000000">show</text>
<polyline fill="none" stroke="#000000" points="408,-97.5 591.9795,-97.5 "/>
<polyline fill="none" stroke="#000000" points="408,-73.5 591.9795,-73.5 "/>
<text text-anchor="start" x="416" y="-58.3" font-family="Times,serif" font-size="14.00" fill="#000000">_layout</text>
</g>
<!-- Buttercms::BaseController -->
<g id="node12" class="node">
<title>Buttercms::BaseController</title>
<path fill="none" stroke="#000000" d="M46,-51.5C46,-51.5 188.083,-51.5 188.083,-51.5 194.083,-51.5 200.083,-57.5 200.083,-63.5 200.083,-63.5 200.083,-131.5 200.083,-131.5 200.083,-137.5 194.083,-143.5 188.083,-143.5 188.083,-143.5 46,-143.5 46,-143.5 40,-143.5 34,-137.5 34,-131.5 34,-131.5 34,-63.5 34,-63.5 34,-57.5 40,-51.5 46,-51.5"/>
<text text-anchor="middle" x="117.0415" y="-128.3" font-family="Times,serif" font-size="14.00" fill="#000000">Buttercms::BaseController</text>
<polyline fill="none" stroke="#000000" points="34,-121.5 200.083,-121.5 "/>
<polyline fill="none" stroke="#000000" points="34,-97.5 200.083,-97.5 "/>
<polyline fill="none" stroke="#000000" points="34,-73.5 200.083,-73.5 "/>
<text text-anchor="start" x="42" y="-58.3" font-family="Times,serif" font-size="14.00" fill="#000000">_layout</text>
</g>
<!-- Buttercms::CategoriesController -->
<g id="node13" class="node">
<title>Buttercms::CategoriesController</title>
<path fill="none" stroke="#000000" d="M760,-544.5C760,-544.5 934.7383,-544.5 934.7383,-544.5 940.7383,-544.5 946.7383,-550.5 946.7383,-556.5 946.7383,-556.5 946.7383,-622.5 946.7383,-622.5 946.7383,-628.5 940.7383,-634.5 934.7383,-634.5 934.7383,-634.5 760,-634.5 760,-634.5 754,-634.5 748,-628.5 748,-622.5 748,-622.5 748,-556.5 748,-556.5 748,-550.5 754,-544.5 760,-544.5"/>
<text text-anchor="middle" x="847.3691" y="-619.3" font-family="Times,serif" font-size="14.00" fill="#000000">Buttercms::CategoriesController</text>
<polyline fill="none" stroke="#000000" points="748,-612.5 946.7383,-612.5 "/>
<text text-anchor="start" x="756" y="-597.3" font-family="Times,serif" font-size="14.00" fill="#000000">show</text>
<polyline fill="none" stroke="#000000" points="748,-590.5 946.7383,-590.5 "/>
<polyline fill="none" stroke="#000000" points="748,-566.5 946.7383,-566.5 "/>
<text text-anchor="start" x="756" y="-551.3" font-family="Times,serif" font-size="14.00" fill="#000000">_layout</text>
</g>
<!-- Buttercms::FeedsController -->
<g id="node14" class="node">
<title>Buttercms::FeedsController</title>
<path fill="none" stroke="#000000" d="M148,-170.5C148,-170.5 295.5313,-170.5 295.5313,-170.5 301.5313,-170.5 307.5313,-176.5 307.5313,-182.5 307.5313,-182.5 307.5313,-276.5 307.5313,-276.5 307.5313,-282.5 301.5313,-288.5 295.5313,-288.5 295.5313,-288.5 148,-288.5 148,-288.5 142,-288.5 136,-282.5 136,-276.5 136,-276.5 136,-182.5 136,-182.5 136,-176.5 142,-170.5 148,-170.5"/>
<text text-anchor="middle" x="221.7656" y="-273.3" font-family="Times,serif" font-size="14.00" fill="#000000">Buttercms::FeedsController</text>
<polyline fill="none" stroke="#000000" points="136,-266.5 307.5313,-266.5 "/>
<text text-anchor="start" x="144" y="-251.3" font-family="Times,serif" font-size="14.00" fill="#000000">atom</text>
<text text-anchor="start" x="144" y="-237.3" font-family="Times,serif" font-size="14.00" fill="#000000">rss</text>
<text text-anchor="start" x="144" y="-223.3" font-family="Times,serif" font-size="14.00" fill="#000000">sitemap</text>
<polyline fill="none" stroke="#000000" points="136,-216.5 307.5313,-216.5 "/>
<polyline fill="none" stroke="#000000" points="136,-192.5 307.5313,-192.5 "/>
<text text-anchor="start" x="144" y="-177.3" font-family="Times,serif" font-size="14.00" fill="#000000">_layout</text>
</g>
<!-- Buttercms::PostsController -->
<g id="node15" class="node">
<title>Buttercms::PostsController</title>
<path fill="none" stroke="#000000" d="M386,-816.5C386,-816.5 530.4414,-816.5 530.4414,-816.5 536.4414,-816.5 542.4414,-822.5 542.4414,-828.5 542.4414,-828.5 542.4414,-908.5 542.4414,-908.5 542.4414,-914.5 536.4414,-920.5 530.4414,-920.5 530.4414,-920.5 386,-920.5 386,-920.5 380,-920.5 374,-914.5 374,-908.5 374,-908.5 374,-828.5 374,-828.5 374,-822.5 380,-816.5 386,-816.5"/>
<text text-anchor="middle" x="458.2207" y="-905.3" font-family="Times,serif" font-size="14.00" fill="#000000">Buttercms::PostsController</text>
<polyline fill="none" stroke="#000000" points="374,-898.5 542.4414,-898.5 "/>
<text text-anchor="start" x="382" y="-883.3" font-family="Times,serif" font-size="14.00" fill="#000000">index</text>
<text text-anchor="start" x="382" y="-869.3" font-family="Times,serif" font-size="14.00" fill="#000000">show</text>
<polyline fill="none" stroke="#000000" points="374,-862.5 542.4414,-862.5 "/>
<polyline fill="none" stroke="#000000" points="374,-838.5 542.4414,-838.5 "/>
<text text-anchor="start" x="382" y="-823.3" font-family="Times,serif" font-size="14.00" fill="#000000">_layout</text>
</g>
<!-- CommentsController -->
<g id="node16" class="node">
<title>CommentsController</title>
<path fill="none" stroke="#000000" d="M590,-595.5C590,-595.5 700.2139,-595.5 700.2139,-595.5 706.2139,-595.5 712.2139,-601.5 712.2139,-607.5 712.2139,-607.5 712.2139,-799.5 712.2139,-799.5 712.2139,-805.5 706.2139,-811.5 700.2139,-811.5 700.2139,-811.5 590,-811.5 590,-811.5 584,-811.5 578,-805.5 578,-799.5 578,-799.5 578,-607.5 578,-607.5 578,-601.5 584,-595.5 590,-595.5"/>
<text text-anchor="middle" x="645.1069" y="-796.3" font-family="Times,serif" font-size="14.00" fill="#000000">CommentsController</text>
<polyline fill="none" stroke="#000000" points="578,-789.5 712.2139,-789.5 "/>
<text text-anchor="start" x="586" y="-774.3" font-family="Times,serif" font-size="14.00" fill="#000000">index</text>
<text text-anchor="start" x="586" y="-760.3" font-family="Times,serif" font-size="14.00" fill="#000000">destroy</text>
<text text-anchor="start" x="586" y="-746.3" font-family="Times,serif" font-size="14.00" fill="#000000">edit</text>
<text text-anchor="start" x="586" y="-732.3" font-family="Times,serif" font-size="14.00" fill="#000000">create</text>
<text text-anchor="start" x="586" y="-718.3" font-family="Times,serif" font-size="14.00" fill="#000000">new</text>
<text text-anchor="start" x="586" y="-704.3" font-family="Times,serif" font-size="14.00" fill="#000000">show</text>
<text text-anchor="start" x="586" y="-690.3" font-family="Times,serif" font-size="14.00" fill="#000000">update</text>
<polyline fill="none" stroke="#000000" points="578,-683.5 712.2139,-683.5 "/>
<polyline fill="none" stroke="#000000" points="578,-659.5 712.2139,-659.5 "/>
<text text-anchor="start" x="586" y="-644.3" font-family="Times,serif" font-size="14.00" fill="#000000">_layout</text>
<text text-anchor="start" x="586" y="-630.3" font-family="Times,serif" font-size="14.00" fill="#000000">comment_params</text>
<text text-anchor="start" x="586" y="-616.3" font-family="Times,serif" font-size="14.00" fill="#000000">get_comment</text>
<text text-anchor="start" x="586" y="-602.3" font-family="Times,serif" font-size="14.00" fill="#000000">get_model</text>
</g>
<!-- EzhongjieController -->
<g id="node17" class="node">
<title>EzhongjieController</title>
<path fill="none" stroke="#000000" d="M250,-51.5C250,-51.5 356.3037,-51.5 356.3037,-51.5 362.3037,-51.5 368.3037,-57.5 368.3037,-63.5 368.3037,-63.5 368.3037,-129.5 368.3037,-129.5 368.3037,-135.5 362.3037,-141.5 356.3037,-141.5 356.3037,-141.5 250,-141.5 250,-141.5 244,-141.5 238,-135.5 238,-129.5 238,-129.5 238,-63.5 238,-63.5 238,-57.5 244,-51.5 250,-51.5"/>
<text text-anchor="middle" x="303.1519" y="-126.3" font-family="Times,serif" font-size="14.00" fill="#000000">EzhongjieController</text>
<polyline fill="none" stroke="#000000" points="238,-119.5 368.3037,-119.5 "/>
<text text-anchor="start" x="246" y="-104.3" font-family="Times,serif" font-size="14.00" fill="#000000">index</text>
<polyline fill="none" stroke="#000000" points="238,-97.5 368.3037,-97.5 "/>
<polyline fill="none" stroke="#000000" points="238,-73.5 368.3037,-73.5 "/>
<text text-anchor="start" x="246" y="-58.3" font-family="Times,serif" font-size="14.00" fill="#000000">_layout</text>
</g>
<!-- HelperController -->
<g id="node18" class="node">
<title>HelperController</title>
<path fill="none" stroke="#000000" d="M46,-425.5C46,-425.5 133.6348,-425.5 133.6348,-425.5 139.6348,-425.5 145.6348,-431.5 145.6348,-437.5 145.6348,-437.5 145.6348,-531.5 145.6348,-531.5 145.6348,-537.5 139.6348,-543.5 133.6348,-543.5 133.6348,-543.5 46,-543.5 46,-543.5 40,-543.5 34,-537.5 34,-531.5 34,-531.5 34,-437.5 34,-437.5 34,-431.5 40,-425.5 46,-425.5"/>
<text text-anchor="middle" x="89.8174" y="-528.3" font-family="Times,serif" font-size="14.00" fill="#000000">HelperController</text>
<polyline fill="none" stroke="#000000" points="34,-521.5 145.6348,-521.5 "/>
<text text-anchor="start" x="42" y="-506.3" font-family="Times,serif" font-size="14.00" fill="#000000">create</text>
<text text-anchor="start" x="42" y="-492.3" font-family="Times,serif" font-size="14.00" fill="#000000">index</text>
<polyline fill="none" stroke="#000000" points="34,-485.5 145.6348,-485.5 "/>
<polyline fill="none" stroke="#000000" points="34,-461.5 145.6348,-461.5 "/>
<text text-anchor="start" x="42" y="-446.3" font-family="Times,serif" font-size="14.00" fill="#000000">_layout</text>
<text text-anchor="start" x="42" y="-432.3" font-family="Times,serif" font-size="14.00" fill="#000000">helper_params</text>
</g>
<!-- HousesController -->
<g id="node19" class="node">
<title>HousesController</title>
<path fill="none" stroke="#000000" d="M199,-323.5C199,-323.5 289.7656,-323.5 289.7656,-323.5 295.7656,-323.5 301.7656,-329.5 301.7656,-335.5 301.7656,-335.5 301.7656,-527.5 301.7656,-527.5 301.7656,-533.5 295.7656,-539.5 289.7656,-539.5 289.7656,-539.5 199,-539.5 199,-539.5 193,-539.5 187,-533.5 187,-527.5 187,-527.5 187,-335.5 187,-335.5 187,-329.5 193,-323.5 199,-323.5"/>
<text text-anchor="middle" x="244.3828" y="-524.3" font-family="Times,serif" font-size="14.00" fill="#000000">HousesController</text>
<polyline fill="none" stroke="#000000" points="187,-517.5 301.7656,-517.5 "/>
<text text-anchor="start" x="195" y="-502.3" font-family="Times,serif" font-size="14.00" fill="#000000">index</text>
<text text-anchor="start" x="195" y="-488.3" font-family="Times,serif" font-size="14.00" fill="#000000">destroy</text>
<text text-anchor="start" x="195" y="-474.3" font-family="Times,serif" font-size="14.00" fill="#000000">edit</text>
<text text-anchor="start" x="195" y="-460.3" font-family="Times,serif" font-size="14.00" fill="#000000">create</text>
<text text-anchor="start" x="195" y="-446.3" font-family="Times,serif" font-size="14.00" fill="#000000">new</text>
<text text-anchor="start" x="195" y="-432.3" font-family="Times,serif" font-size="14.00" fill="#000000">show</text>
<text text-anchor="start" x="195" y="-418.3" font-family="Times,serif" font-size="14.00" fill="#000000">update</text>
<polyline fill="none" stroke="#000000" points="187,-411.5 301.7656,-411.5 "/>
<polyline fill="none" stroke="#000000" points="187,-387.5 301.7656,-387.5 "/>
<text text-anchor="start" x="195" y="-372.3" font-family="Times,serif" font-size="14.00" fill="#000000">_layout</text>
<text text-anchor="start" x="195" y="-358.3" font-family="Times,serif" font-size="14.00" fill="#000000">get_house</text>
<text text-anchor="start" x="195" y="-344.3" font-family="Times,serif" font-size="14.00" fill="#000000">get_model</text>
<text text-anchor="start" x="195" y="-330.3" font-family="Times,serif" font-size="14.00" fill="#000000">house_params</text>
</g>
<!-- OrdersController -->
<g id="node20" class="node">
<title>OrdersController</title>
<path fill="none" stroke="#000000" d="M114,-731.5C114,-731.5 221.0762,-731.5 221.0762,-731.5 227.0762,-731.5 233.0762,-737.5 233.0762,-743.5 233.0762,-743.5 233.0762,-865.5 233.0762,-865.5 233.0762,-871.5 227.0762,-877.5 221.0762,-877.5 221.0762,-877.5 114,-877.5 114,-877.5 108,-877.5 102,-871.5 102,-865.5 102,-865.5 102,-743.5 102,-743.5 102,-737.5 108,-731.5 114,-731.5"/>
<text text-anchor="middle" x="167.5381" y="-862.3" font-family="Times,serif" font-size="14.00" fill="#000000">OrdersController</text>
<polyline fill="none" stroke="#000000" points="102,-855.5 233.0762,-855.5 "/>
<text text-anchor="start" x="110" y="-840.3" font-family="Times,serif" font-size="14.00" fill="#000000">create</text>
<text text-anchor="start" x="110" y="-826.3" font-family="Times,serif" font-size="14.00" fill="#000000">new</text>
<text text-anchor="start" x="110" y="-812.3" font-family="Times,serif" font-size="14.00" fill="#000000">notify</text>
<text text-anchor="start" x="110" y="-798.3" font-family="Times,serif" font-size="14.00" fill="#000000">show</text>
<polyline fill="none" stroke="#000000" points="102,-791.5 233.0762,-791.5 "/>
<polyline fill="none" stroke="#000000" points="102,-767.5 233.0762,-767.5 "/>
<text text-anchor="start" x="110" y="-752.3" font-family="Times,serif" font-size="14.00" fill="#000000">_layout</text>
<text text-anchor="start" x="110" y="-738.3" font-family="Times,serif" font-size="14.00" fill="#000000">verify_alipay_notify</text>
</g>
<!-- SiteController -->
<g id="node21" class="node">
<title>SiteController</title>
<path fill="none" stroke="#000000" d="M692,-850.5C692,-850.5 763.3242,-850.5 763.3242,-850.5 769.3242,-850.5 775.3242,-856.5 775.3242,-862.5 775.3242,-862.5 775.3242,-928.5 775.3242,-928.5 775.3242,-934.5 769.3242,-940.5 763.3242,-940.5 763.3242,-940.5 692,-940.5 692,-940.5 686,-940.5 680,-934.5 680,-928.5 680,-928.5 680,-862.5 680,-862.5 680,-856.5 686,-850.5 692,-850.5"/>
<text text-anchor="middle" x="727.6621" y="-925.3" font-family="Times,serif" font-size="14.00" fill="#000000">SiteController</text>
<polyline fill="none" stroke="#000000" points="680,-918.5 775.3242,-918.5 "/>
<text text-anchor="start" x="688" y="-903.3" font-family="Times,serif" font-size="14.00" fill="#000000">index</text>
<polyline fill="none" stroke="#000000" points="680,-896.5 775.3242,-896.5 "/>
<polyline fill="none" stroke="#000000" points="680,-872.5 775.3242,-872.5 "/>
<text text-anchor="start" x="688" y="-857.3" font-family="Times,serif" font-size="14.00" fill="#000000">_layout</text>
</g>
<!-- TipsController -->
<g id="node22" class="node">
<title>TipsController</title>
<path fill="none" stroke="#000000" d="M12,-272.5C12,-272.5 85.9492,-272.5 85.9492,-272.5 91.9492,-272.5 97.9492,-278.5 97.9492,-284.5 97.9492,-284.5 97.9492,-378.5 97.9492,-378.5 97.9492,-384.5 91.9492,-390.5 85.9492,-390.5 85.9492,-390.5 12,-390.5 12,-390.5 6,-390.5 0,-384.5 0,-378.5 0,-378.5 0,-284.5 0,-284.5 0,-278.5 6,-272.5 12,-272.5"/>
<text text-anchor="middle" x="48.9746" y="-375.3" font-family="Times,serif" font-size="14.00" fill="#000000">TipsController</text>
<polyline fill="none" stroke="#000000" points="0,-368.5 97.9492,-368.5 "/>
<text text-anchor="start" x="8" y="-353.3" font-family="Times,serif" font-size="14.00" fill="#000000">download</text>
<text text-anchor="start" x="8" y="-339.3" font-family="Times,serif" font-size="14.00" fill="#000000">index</text>
<text text-anchor="start" x="8" y="-325.3" font-family="Times,serif" font-size="14.00" fill="#000000">list</text>
<polyline fill="none" stroke="#000000" points="0,-318.5 97.9492,-318.5 "/>
<polyline fill="none" stroke="#000000" points="0,-294.5 97.9492,-294.5 "/>
<text text-anchor="start" x="8" y="-279.3" font-family="Times,serif" font-size="14.00" fill="#000000">_layout</text>
</g>
<!-- UsersController -->
<g id="node23" class="node">
<title>UsersController</title>
<path fill="none" stroke="#000000" d="M352,-289.5C352,-289.5 446.6416,-289.5 446.6416,-289.5 452.6416,-289.5 458.6416,-295.5 458.6416,-301.5 458.6416,-301.5 458.6416,-535.5 458.6416,-535.5 458.6416,-541.5 452.6416,-547.5 446.6416,-547.5 446.6416,-547.5 352,-547.5 352,-547.5 346,-547.5 340,-541.5 340,-535.5 340,-535.5 340,-301.5 340,-301.5 340,-295.5 346,-289.5 352,-289.5"/>
<text text-anchor="middle" x="399.3208" y="-532.3" font-family="Times,serif" font-size="14.00" fill="#000000">UsersController</text>
<polyline fill="none" stroke="#000000" points="340,-525.5 458.6416,-525.5 "/>
<text text-anchor="start" x="348" y="-510.3" font-family="Times,serif" font-size="14.00" fill="#000000">user_params</text>
<text text-anchor="start" x="348" y="-496.3" font-family="Times,serif" font-size="14.00" fill="#000000">check_code</text>
<text text-anchor="start" x="348" y="-482.3" font-family="Times,serif" font-size="14.00" fill="#000000">check_mobile</text>
<text text-anchor="start" x="348" y="-468.3" font-family="Times,serif" font-size="14.00" fill="#000000">check_user</text>
<text text-anchor="start" x="348" y="-454.3" font-family="Times,serif" font-size="14.00" fill="#000000">create</text>
<text text-anchor="start" x="348" y="-440.3" font-family="Times,serif" font-size="14.00" fill="#000000">edit</text>
<text text-anchor="start" x="348" y="-426.3" font-family="Times,serif" font-size="14.00" fill="#000000">login</text>
<text text-anchor="start" x="348" y="-412.3" font-family="Times,serif" font-size="14.00" fill="#000000">logout</text>
<text text-anchor="start" x="348" y="-398.3" font-family="Times,serif" font-size="14.00" fill="#000000">new</text>
<text text-anchor="start" x="348" y="-384.3" font-family="Times,serif" font-size="14.00" fill="#000000">reset</text>
<text text-anchor="start" x="348" y="-370.3" font-family="Times,serif" font-size="14.00" fill="#000000">show</text>
<text text-anchor="start" x="348" y="-356.3" font-family="Times,serif" font-size="14.00" fill="#000000">sms</text>
<text text-anchor="start" x="348" y="-342.3" font-family="Times,serif" font-size="14.00" fill="#000000">apipie_validations</text>
<polyline fill="none" stroke="#000000" points="340,-335.5 458.6416,-335.5 "/>
<polyline fill="none" stroke="#000000" points="340,-311.5 458.6416,-311.5 "/>
<text text-anchor="start" x="348" y="-296.3" font-family="Times,serif" font-size="14.00" fill="#000000">_layout</text>
</g>
<!-- WechatsController -->
<g id="node24" class="node">
<title>WechatsController</title>
<path fill="none" stroke="#000000" d="M352,-170.5C352,-170.5 448.624,-170.5 448.624,-170.5 454.624,-170.5 460.624,-176.5 460.624,-182.5 460.624,-182.5 460.624,-250.5 460.624,-250.5 460.624,-256.5 454.624,-262.5 448.624,-262.5 448.624,-262.5 352,-262.5 352,-262.5 346,-262.5 340,-256.5 340,-250.5 340,-250.5 340,-182.5 340,-182.5 340,-176.5 346,-170.5 352,-170.5"/>
<text text-anchor="middle" x="400.312" y="-247.3" font-family="Times,serif" font-size="14.00" fill="#000000">WechatsController</text>
<polyline fill="none" stroke="#000000" points="340,-240.5 460.624,-240.5 "/>
<polyline fill="none" stroke="#000000" points="340,-216.5 460.624,-216.5 "/>
<polyline fill="none" stroke="#000000" points="340,-192.5 460.624,-192.5 "/>
<text text-anchor="start" x="348" y="-177.3" font-family="Times,serif" font-size="14.00" fill="#000000">_layout</text>
</g>
</g>
</svg>
