<?xml version="1.0" encoding="UTF-8" standalone="no"?>
<!DOCTYPE svg PUBLIC "-//W3C//DTD SVG 1.1//EN"
 "http://www.w3.org/Graphics/SVG/1.1/DTD/svg11.dtd">
<!-- Generated by graphviz version 2.40.1 (20161225.0304)
 -->
<!-- Title: models_diagram Pages: 1 -->
<svg width="958pt" height="1127pt"
 viewBox="0.00 0.00 958.41 1127.00" xmlns="http://www.w3.org/2000/svg" xmlns:xlink="http://www.w3.org/1999/xlink">
<g id="graph0" class="graph" transform="scale(1 1) rotate(0) translate(4 1123)">
<title>models_diagram</title>
<polygon fill="transparent" stroke="transparent" points="-4,4 -4,-1123 954.4116,-1123 954.4116,4 -4,4"/>
<!-- _diagram_info -->
<g id="node1" class="node">
<title>_diagram_info</title>
<text text-anchor="start" x="8" y="-1000.1" font-family="Times,serif" font-size="13.00" fill="#000000">Models diagram</text>
<text text-anchor="start" x="8" y="-987.1" font-family="Times,serif" font-size="13.00" fill="#000000">Date: Jan 11 2018 &#45; 02:46</text>
<text text-anchor="start" x="8" y="-974.1" font-family="Times,serif" font-size="13.00" fill="#000000">Generated by RailRoady 1.5.3</text>
<text text-anchor="start" x="8" y="-961.1" font-family="Times,serif" font-size="13.00" fill="#000000">http://railroady.prestonlee.com</text>
</g>
<!-- Agent -->
<g id="node2" class="node">
<title>Agent</title>
<path fill="none" stroke="#000000" d="M204.646,-363.5C204.646,-363.5 316.7944,-363.5 316.7944,-363.5 322.7944,-363.5 328.7944,-369.5 328.7944,-375.5 328.7944,-375.5 328.7944,-801.5 328.7944,-801.5 328.7944,-807.5 322.7944,-813.5 316.7944,-813.5 316.7944,-813.5 204.646,-813.5 204.646,-813.5 198.646,-813.5 192.646,-807.5 192.646,-801.5 192.646,-801.5 192.646,-375.5 192.646,-375.5 192.646,-369.5 198.646,-363.5 204.646,-363.5"/>
<text text-anchor="middle" x="260.7202" y="-798.3" font-family="Times,serif" font-size="14.00" fill="#000000">Agent</text>
<polyline fill="none" stroke="#000000" points="192.646,-791.5 328.7944,-791.5 "/>
<text text-anchor="start" x="200.646" y="-776.3" font-family="Times,serif" font-size="14.00" fill="#000000">visits :Integer</text>
<text text-anchor="start" x="200.646" y="-762.3" font-family="Times,serif" font-size="14.00" fill="#000000">_slugs :Array</text>
<text text-anchor="start" x="200.646" y="-748.3" font-family="Times,serif" font-size="14.00" fill="#000000">career :Integer</text>
<text text-anchor="start" x="200.646" y="-734.3" font-family="Times,serif" font-size="14.00" fill="#000000">city :String</text>
<text text-anchor="start" x="200.646" y="-720.3" font-family="Times,serif" font-size="14.00" fill="#000000">clicks :Integer</text>
<text text-anchor="start" x="200.646" y="-706.3" font-family="Times,serif" font-size="14.00" fill="#000000">commissions :Integer</text>
<text text-anchor="start" x="200.646" y="-692.3" font-family="Times,serif" font-size="14.00" fill="#000000">community :String</text>
<text text-anchor="start" x="200.646" y="-678.3" font-family="Times,serif" font-size="14.00" fill="#000000">company :String</text>
<text text-anchor="start" x="200.646" y="-664.3" font-family="Times,serif" font-size="14.00" fill="#000000">created_at :Time</text>
<text text-anchor="start" x="200.646" y="-650.3" font-family="Times,serif" font-size="14.00" fill="#000000">customers :Integer</text>
<text text-anchor="start" x="200.646" y="-636.3" font-family="Times,serif" font-size="14.00" fill="#000000">district :String</text>
<text text-anchor="start" x="200.646" y="-622.3" font-family="Times,serif" font-size="14.00" fill="#000000">followers :Integer</text>
<text text-anchor="start" x="200.646" y="-608.3" font-family="Times,serif" font-size="14.00" fill="#000000">href :String</text>
<text text-anchor="start" x="200.646" y="-594.3" font-family="Times,serif" font-size="14.00" fill="#000000">label :String</text>
<text text-anchor="start" x="200.646" y="-580.3" font-family="Times,serif" font-size="14.00" fill="#000000">major :String</text>
<text text-anchor="start" x="200.646" y="-566.3" font-family="Times,serif" font-size="14.00" fill="#000000">mobile :Integer</text>
<text text-anchor="start" x="200.646" y="-552.3" font-family="Times,serif" font-size="14.00" fill="#000000">money :Float</text>
<text text-anchor="start" x="200.646" y="-538.3" font-family="Times,serif" font-size="14.00" fill="#000000">name :String</text>
<text text-anchor="start" x="200.646" y="-524.3" font-family="Times,serif" font-size="14.00" fill="#000000">percentile :Integer</text>
<text text-anchor="start" x="200.646" y="-510.3" font-family="Times,serif" font-size="14.00" fill="#000000">position :String</text>
<text text-anchor="start" x="200.646" y="-496.3" font-family="Times,serif" font-size="14.00" fill="#000000">rates :Integer</text>
<text text-anchor="start" x="200.646" y="-482.3" font-family="Times,serif" font-size="14.00" fill="#000000">region :String</text>
<text text-anchor="start" x="200.646" y="-468.3" font-family="Times,serif" font-size="14.00" fill="#000000">rents :Integer</text>
<text text-anchor="start" x="200.646" y="-454.3" font-family="Times,serif" font-size="14.00" fill="#000000">sales :Integer</text>
<text text-anchor="start" x="200.646" y="-440.3" font-family="Times,serif" font-size="14.00" fill="#000000">stars :Integer</text>
<text text-anchor="start" x="200.646" y="-426.3" font-family="Times,serif" font-size="14.00" fill="#000000">transactions :Integer</text>
<text text-anchor="start" x="200.646" y="-412.3" font-family="Times,serif" font-size="14.00" fill="#000000">tx :String</text>
<text text-anchor="start" x="200.646" y="-398.3" font-family="Times,serif" font-size="14.00" fill="#000000">updated_at :Time</text>
<text text-anchor="start" x="200.646" y="-384.3" font-family="Times,serif" font-size="14.00" fill="#000000">user_id :String</text>
<text text-anchor="start" x="200.646" y="-370.3" font-family="Times,serif" font-size="14.00" fill="#000000">_id :BSON::ObjectId</text>
</g>
<!-- Comment -->
<g id="node3" class="node">
<title>Comment</title>
<path fill="none" stroke="#000000" d="M52.0288,-107.5C52.0288,-107.5 163.4116,-107.5 163.4116,-107.5 169.4116,-107.5 175.4116,-113.5 175.4116,-119.5 175.4116,-119.5 175.4116,-279.5 175.4116,-279.5 175.4116,-285.5 169.4116,-291.5 163.4116,-291.5 163.4116,-291.5 52.0288,-291.5 52.0288,-291.5 46.0288,-291.5 40.0288,-285.5 40.0288,-279.5 40.0288,-279.5 40.0288,-119.5 40.0288,-119.5 40.0288,-113.5 46.0288,-107.5 52.0288,-107.5"/>
<text text-anchor="middle" x="107.7202" y="-276.3" font-family="Times,serif" font-size="14.00" fill="#000000">Comment</text>
<polyline fill="none" stroke="#000000" points="40.0288,-269.5 175.4116,-269.5 "/>
<text text-anchor="start" x="48.0288" y="-254.3" font-family="Times,serif" font-size="14.00" fill="#000000">updated_at :Time</text>
<text text-anchor="start" x="48.0288" y="-240.3" font-family="Times,serif" font-size="14.00" fill="#000000">author :String</text>
<text text-anchor="start" x="48.0288" y="-226.3" font-family="Times,serif" font-size="14.00" fill="#000000">code :String</text>
<text text-anchor="start" x="48.0288" y="-212.3" font-family="Times,serif" font-size="14.00" fill="#000000">community :String</text>
<text text-anchor="start" x="48.0288" y="-198.3" font-family="Times,serif" font-size="14.00" fill="#000000">created_at :Time</text>
<text text-anchor="start" x="48.0288" y="-184.3" font-family="Times,serif" font-size="14.00" fill="#000000">deleted_at :Time</text>
<text text-anchor="start" x="48.0288" y="-170.3" font-family="Times,serif" font-size="14.00" fill="#000000">kind :String</text>
<text text-anchor="start" x="48.0288" y="-156.3" font-family="Times,serif" font-size="14.00" fill="#000000">parent :String</text>
<text text-anchor="start" x="48.0288" y="-142.3" font-family="Times,serif" font-size="14.00" fill="#000000">path :String</text>
<text text-anchor="start" x="48.0288" y="-128.3" font-family="Times,serif" font-size="14.00" fill="#000000">text :String</text>
<text text-anchor="start" x="48.0288" y="-114.3" font-family="Times,serif" font-size="14.00" fill="#000000">_id :BSON::ObjectId</text>
</g>
<!-- Agent&#45;&gt;Comment -->
<g id="edge1" class="edge">
<title>Agent&#45;&gt;Comment</title>
<path fill="none" stroke="#2faf0f" d="M189.6609,-407.833C175.2666,-371.2355 160.614,-333.9816 147.7556,-301.2893"/>
<ellipse fill="none" stroke="#2faf0f" cx="191.1456" cy="-411.6078" rx="4" ry="4"/>
<polygon fill="#2faf0f" stroke="#2faf0f" points="147.6625,-301.0524 148.1899,-290.0992 145.8323,-296.3993 144.0022,-291.7463 144.0022,-291.7463 144.0022,-291.7463 145.8323,-296.3993 139.8145,-293.3934 147.6625,-301.0524 147.6625,-301.0524"/>
</g>
<!-- House -->
<g id="node6" class="node">
<title>House</title>
<path fill="none" stroke="#000000" d="M205.0288,-72.5C205.0288,-72.5 316.4116,-72.5 316.4116,-72.5 322.4116,-72.5 328.4116,-78.5 328.4116,-84.5 328.4116,-84.5 328.4116,-314.5 328.4116,-314.5 328.4116,-320.5 322.4116,-326.5 316.4116,-326.5 316.4116,-326.5 205.0288,-326.5 205.0288,-326.5 199.0288,-326.5 193.0288,-320.5 193.0288,-314.5 193.0288,-314.5 193.0288,-84.5 193.0288,-84.5 193.0288,-78.5 199.0288,-72.5 205.0288,-72.5"/>
<text text-anchor="middle" x="260.7202" y="-311.3" font-family="Times,serif" font-size="14.00" fill="#000000">House</text>
<polyline fill="none" stroke="#000000" points="193.0288,-304.5 328.4116,-304.5 "/>
<text text-anchor="start" x="201.0288" y="-289.3" font-family="Times,serif" font-size="14.00" fill="#000000">updated_at :Time</text>
<text text-anchor="start" x="201.0288" y="-275.3" font-family="Times,serif" font-size="14.00" fill="#000000">area :String</text>
<text text-anchor="start" x="201.0288" y="-261.3" font-family="Times,serif" font-size="14.00" fill="#000000">clicks :Integer</text>
<text text-anchor="start" x="201.0288" y="-247.3" font-family="Times,serif" font-size="14.00" fill="#000000">created_at :Time</text>
<text text-anchor="start" x="201.0288" y="-233.3" font-family="Times,serif" font-size="14.00" fill="#000000">description :String</text>
<text text-anchor="start" x="201.0288" y="-219.3" font-family="Times,serif" font-size="14.00" fill="#000000">floor :String</text>
<text text-anchor="start" x="201.0288" y="-205.3" font-family="Times,serif" font-size="14.00" fill="#000000">followers :Integer</text>
<text text-anchor="start" x="201.0288" y="-191.3" font-family="Times,serif" font-size="14.00" fill="#000000">location :String</text>
<text text-anchor="start" x="201.0288" y="-177.3" font-family="Times,serif" font-size="14.00" fill="#000000">model :String</text>
<text text-anchor="start" x="201.0288" y="-163.3" font-family="Times,serif" font-size="14.00" fill="#000000">price :String</text>
<text text-anchor="start" x="201.0288" y="-149.3" font-family="Times,serif" font-size="14.00" fill="#000000">thumbs :String</text>
<text text-anchor="start" x="201.0288" y="-135.3" font-family="Times,serif" font-size="14.00" fill="#000000">title :String</text>
<text text-anchor="start" x="201.0288" y="-121.3" font-family="Times,serif" font-size="14.00" fill="#000000">toward :String</text>
<text text-anchor="start" x="201.0288" y="-107.3" font-family="Times,serif" font-size="14.00" fill="#000000">type :String</text>
<text text-anchor="start" x="201.0288" y="-93.3" font-family="Times,serif" font-size="14.00" fill="#000000">unit_price :String</text>
<text text-anchor="start" x="201.0288" y="-79.3" font-family="Times,serif" font-size="14.00" fill="#000000">_id :BSON::ObjectId</text>
</g>
<!-- Agent&#45;&gt;House -->
<g id="edge2" class="edge">
<title>Agent&#45;&gt;House</title>
<path fill="none" stroke="#e70dd5" d="M254.091,-355.211C254.1299,-349.0308 254.1783,-342.9051 254.2361,-336.8602"/>
<ellipse fill="none" stroke="#e70dd5" cx="254.0678" cy="-359.3436" rx="4" ry="4"/>
<polygon fill="#e70dd5" stroke="#e70dd5" points="254.2369,-336.7674 258.842,-326.8153 254.2896,-331.7677 254.3422,-326.768 254.3422,-326.768 254.3422,-326.768 254.2896,-331.7677 249.8425,-326.7206 254.2369,-336.7674 254.2369,-336.7674"/>
</g>
<!-- Commentable -->
<g id="node10" class="node">
<title>Commentable</title>
<ellipse fill="none" stroke="#000000" cx="107.7202" cy="-18" rx="59.9357" ry="18"/>
<text text-anchor="middle" x="107.7202" y="-13.8" font-family="Times,serif" font-size="14.00" fill="#000000">Commentable</text>
</g>
<!-- Comment&#45;&gt;Commentable -->
<g id="edge3" class="edge">
<title>Comment&#45;&gt;Commentable</title>
<path fill="none" stroke="#ca6c54" d="M107.7202,-97.2464C107.7202,-78.4135 107.7202,-60.2524 107.7202,-46.0781"/>
<polygon fill="#ca6c54" stroke="#ca6c54" points="107.7203,-97.4207 103.2202,-107.4207 107.7203,-102.4207 107.7202,-107.4207 107.7202,-107.4207 107.7202,-107.4207 107.7203,-102.4207 112.2202,-107.4207 107.7203,-97.4207 107.7203,-97.4207"/>
<polygon fill="#ca6c54" stroke="#ca6c54" points="107.7203,-46.071 112.2202,-36.071 107.7203,-41.071 107.7202,-36.071 107.7202,-36.071 107.7202,-36.071 107.7203,-41.071 103.2202,-36.0711 107.7203,-46.071 107.7203,-46.071"/>
</g>
<!-- Customer -->
<g id="node4" class="node">
<title>Customer</title>
<path fill="none" stroke="#000000" d="M358.0288,-955.5C358.0288,-955.5 469.4116,-955.5 469.4116,-955.5 475.4116,-955.5 481.4116,-961.5 481.4116,-967.5 481.4116,-967.5 481.4116,-1001.5 481.4116,-1001.5 481.4116,-1007.5 475.4116,-1013.5 469.4116,-1013.5 469.4116,-1013.5 358.0288,-1013.5 358.0288,-1013.5 352.0288,-1013.5 346.0288,-1007.5 346.0288,-1001.5 346.0288,-1001.5 346.0288,-967.5 346.0288,-967.5 346.0288,-961.5 352.0288,-955.5 358.0288,-955.5"/>
<text text-anchor="middle" x="413.7202" y="-998.3" font-family="Times,serif" font-size="14.00" fill="#000000">Customer</text>
<polyline fill="none" stroke="#000000" points="346.0288,-991.5 481.4116,-991.5 "/>
<text text-anchor="start" x="354.0288" y="-976.3" font-family="Times,serif" font-size="14.00" fill="#000000">_id :BSON::ObjectId</text>
<text text-anchor="start" x="354.0288" y="-962.3" font-family="Times,serif" font-size="14.00" fill="#000000">mobile :String</text>
</g>
<!-- Helper -->
<g id="node5" class="node">
<title>Helper</title>
<path fill="none" stroke="#000000" d="M511.0288,-941.5C511.0288,-941.5 622.4116,-941.5 622.4116,-941.5 628.4116,-941.5 634.4116,-947.5 634.4116,-953.5 634.4116,-953.5 634.4116,-1015.5 634.4116,-1015.5 634.4116,-1021.5 628.4116,-1027.5 622.4116,-1027.5 622.4116,-1027.5 511.0288,-1027.5 511.0288,-1027.5 505.0288,-1027.5 499.0288,-1021.5 499.0288,-1015.5 499.0288,-1015.5 499.0288,-953.5 499.0288,-953.5 499.0288,-947.5 505.0288,-941.5 511.0288,-941.5"/>
<text text-anchor="middle" x="566.7202" y="-1012.3" font-family="Times,serif" font-size="14.00" fill="#000000">Helper</text>
<polyline fill="none" stroke="#000000" points="499.0288,-1005.5 634.4116,-1005.5 "/>
<text text-anchor="start" x="507.0288" y="-990.3" font-family="Times,serif" font-size="14.00" fill="#000000">_id :BSON::ObjectId</text>
<text text-anchor="start" x="507.0288" y="-976.3" font-family="Times,serif" font-size="14.00" fill="#000000">code :String</text>
<text text-anchor="start" x="507.0288" y="-962.3" font-family="Times,serif" font-size="14.00" fill="#000000">from :String</text>
<text text-anchor="start" x="507.0288" y="-948.3" font-family="Times,serif" font-size="14.00" fill="#000000">to :String</text>
</g>
<!-- House&#45;&gt;Agent -->
<g id="edge4" class="edge">
<title>House&#45;&gt;Agent</title>
<path fill="none" stroke="#a03f71" d="M267.2054,-336.9708C267.2564,-342.3192 267.3001,-347.7307 267.3364,-353.1871"/>
<polygon fill="#a03f71" stroke="#a03f71" points="267.2034,-336.7674 271.598,-326.7207 267.1508,-331.7677 267.0982,-326.768 267.0982,-326.768 267.0982,-326.768 267.1508,-331.7677 262.5985,-326.8153 267.2034,-336.7674 267.2034,-336.7674"/>
<polygon fill="#a03f71" stroke="#a03f71" points="267.3372,-353.3438 262.8952,-363.3697 267.3661,-358.3437 267.3951,-363.3436 267.3951,-363.3436 267.3951,-363.3436 267.3661,-358.3437 271.8951,-363.3175 267.3372,-353.3438 267.3372,-353.3438"/>
</g>
<!-- Order -->
<g id="node7" class="node">
<title>Order</title>
<path fill="none" stroke="#000000" d="M664.6196,-850.5C664.6196,-850.5 784.8208,-850.5 784.8208,-850.5 790.8208,-850.5 796.8208,-856.5 796.8208,-862.5 796.8208,-862.5 796.8208,-1106.5 796.8208,-1106.5 796.8208,-1112.5 790.8208,-1118.5 784.8208,-1118.5 784.8208,-1118.5 664.6196,-1118.5 664.6196,-1118.5 658.6196,-1118.5 652.6196,-1112.5 652.6196,-1106.5 652.6196,-1106.5 652.6196,-862.5 652.6196,-862.5 652.6196,-856.5 658.6196,-850.5 664.6196,-850.5"/>
<text text-anchor="middle" x="724.7202" y="-1103.3" font-family="Times,serif" font-size="14.00" fill="#000000">Order</text>
<polyline fill="none" stroke="#000000" points="652.6196,-1096.5 796.8208,-1096.5 "/>
<text text-anchor="start" x="660.6196" y="-1081.3" font-family="Times,serif" font-size="14.00" fill="#000000">user_type :Integer</text>
<text text-anchor="start" x="660.6196" y="-1067.3" font-family="Times,serif" font-size="14.00" fill="#000000">buyer_email :String</text>
<text text-anchor="start" x="660.6196" y="-1053.3" font-family="Times,serif" font-size="14.00" fill="#000000">buyer_id :String</text>
<text text-anchor="start" x="660.6196" y="-1039.3" font-family="Times,serif" font-size="14.00" fill="#000000">created_at :Time</text>
<text text-anchor="start" x="660.6196" y="-1025.3" font-family="Times,serif" font-size="14.00" fill="#000000">notify_time :DateTime</text>
<text text-anchor="start" x="660.6196" y="-1011.3" font-family="Times,serif" font-size="14.00" fill="#000000">out_trade_no :String</text>
<text text-anchor="start" x="660.6196" y="-997.3" font-family="Times,serif" font-size="14.00" fill="#000000">seller_email :String</text>
<text text-anchor="start" x="660.6196" y="-983.3" font-family="Times,serif" font-size="14.00" fill="#000000">seller_id :String</text>
<text text-anchor="start" x="660.6196" y="-969.3" font-family="Times,serif" font-size="14.00" fill="#000000">subject :String</text>
<text text-anchor="start" x="660.6196" y="-955.3" font-family="Times,serif" font-size="14.00" fill="#000000">total_fee :String</text>
<text text-anchor="start" x="660.6196" y="-941.3" font-family="Times,serif" font-size="14.00" fill="#000000">trade_no :String</text>
<text text-anchor="start" x="660.6196" y="-927.3" font-family="Times,serif" font-size="14.00" fill="#000000">trade_status :Integer</text>
<text text-anchor="start" x="660.6196" y="-913.3" font-family="Times,serif" font-size="14.00" fill="#000000">updated_at :Time</text>
<text text-anchor="start" x="660.6196" y="-899.3" font-family="Times,serif" font-size="14.00" fill="#000000">user_id :String</text>
<text text-anchor="start" x="660.6196" y="-885.3" font-family="Times,serif" font-size="14.00" fill="#000000">user_mobile :String</text>
<text text-anchor="start" x="660.6196" y="-871.3" font-family="Times,serif" font-size="14.00" fill="#000000">user_name :String</text>
<text text-anchor="start" x="660.6196" y="-857.3" font-family="Times,serif" font-size="14.00" fill="#000000">_id :BSON::ObjectId</text>
</g>
<!-- Tip -->
<g id="node8" class="node">
<title>Tip</title>
<path fill="none" stroke="#000000" d="M827.0288,-878.5C827.0288,-878.5 938.4116,-878.5 938.4116,-878.5 944.4116,-878.5 950.4116,-884.5 950.4116,-890.5 950.4116,-890.5 950.4116,-1078.5 950.4116,-1078.5 950.4116,-1084.5 944.4116,-1090.5 938.4116,-1090.5 938.4116,-1090.5 827.0288,-1090.5 827.0288,-1090.5 821.0288,-1090.5 815.0288,-1084.5 815.0288,-1078.5 815.0288,-1078.5 815.0288,-890.5 815.0288,-890.5 815.0288,-884.5 821.0288,-878.5 827.0288,-878.5"/>
<text text-anchor="middle" x="882.7202" y="-1075.3" font-family="Times,serif" font-size="14.00" fill="#000000">Tip</text>
<polyline fill="none" stroke="#000000" points="815.0288,-1068.5 950.4116,-1068.5 "/>
<text text-anchor="start" x="823.0288" y="-1053.3" font-family="Times,serif" font-size="14.00" fill="#000000">version :String</text>
<text text-anchor="start" x="823.0288" y="-1039.3" font-family="Times,serif" font-size="14.00" fill="#000000">author :String</text>
<text text-anchor="start" x="823.0288" y="-1025.3" font-family="Times,serif" font-size="14.00" fill="#000000">available :Integer</text>
<text text-anchor="start" x="823.0288" y="-1011.3" font-family="Times,serif" font-size="14.00" fill="#000000">city :String</text>
<text text-anchor="start" x="823.0288" y="-997.3" font-family="Times,serif" font-size="14.00" fill="#000000">clicks :Integer</text>
<text text-anchor="start" x="823.0288" y="-983.3" font-family="Times,serif" font-size="14.00" fill="#000000">created_at :Time</text>
<text text-anchor="start" x="823.0288" y="-969.3" font-family="Times,serif" font-size="14.00" fill="#000000">description :String</text>
<text text-anchor="start" x="823.0288" y="-955.3" font-family="Times,serif" font-size="14.00" fill="#000000">district :String</text>
<text text-anchor="start" x="823.0288" y="-941.3" font-family="Times,serif" font-size="14.00" fill="#000000">name :String</text>
<text text-anchor="start" x="823.0288" y="-927.3" font-family="Times,serif" font-size="14.00" fill="#000000">route :String</text>
<text text-anchor="start" x="823.0288" y="-913.3" font-family="Times,serif" font-size="14.00" fill="#000000">thumb :String</text>
<text text-anchor="start" x="823.0288" y="-899.3" font-family="Times,serif" font-size="14.00" fill="#000000">updated_at :Time</text>
<text text-anchor="start" x="823.0288" y="-885.3" font-family="Times,serif" font-size="14.00" fill="#000000">_id :BSON::ObjectId</text>
</g>
<!-- User -->
<g id="node9" class="node">
<title>User</title>
<path fill="none" stroke="#000000" d="M205.0288,-927.5C205.0288,-927.5 316.4116,-927.5 316.4116,-927.5 322.4116,-927.5 328.4116,-933.5 328.4116,-939.5 328.4116,-939.5 328.4116,-1029.5 328.4116,-1029.5 328.4116,-1035.5 322.4116,-1041.5 316.4116,-1041.5 316.4116,-1041.5 205.0288,-1041.5 205.0288,-1041.5 199.0288,-1041.5 193.0288,-1035.5 193.0288,-1029.5 193.0288,-1029.5 193.0288,-939.5 193.0288,-939.5 193.0288,-933.5 199.0288,-927.5 205.0288,-927.5"/>
<text text-anchor="middle" x="260.7202" y="-1026.3" font-family="Times,serif" font-size="14.00" fill="#000000">User</text>
<polyline fill="none" stroke="#000000" points="193.0288,-1019.5 328.4116,-1019.5 "/>
<text text-anchor="start" x="201.0288" y="-1004.3" font-family="Times,serif" font-size="14.00" fill="#000000">_id :BSON::ObjectId</text>
<text text-anchor="start" x="201.0288" y="-990.3" font-family="Times,serif" font-size="14.00" fill="#000000">code :Integer</text>
<text text-anchor="start" x="201.0288" y="-976.3" font-family="Times,serif" font-size="14.00" fill="#000000">created_at :Time</text>
<text text-anchor="start" x="201.0288" y="-962.3" font-family="Times,serif" font-size="14.00" fill="#000000">mobile :String</text>
<text text-anchor="start" x="201.0288" y="-948.3" font-family="Times,serif" font-size="14.00" fill="#000000">password :String</text>
<text text-anchor="start" x="201.0288" y="-934.3" font-family="Times,serif" font-size="14.00" fill="#000000">updated_at :Time</text>
</g>
<!-- User&#45;&gt;Agent -->
<g id="edge5" class="edge">
<title>User&#45;&gt;Agent</title>
<path fill="none" stroke="#89ceb4" d="M260.7202,-919.1558C260.7202,-891.5133 260.7202,-857.483 260.7202,-821.8749"/>
<ellipse fill="none" stroke="#89ceb4" cx="260.7203" cy="-923.3411" rx="4" ry="4"/>
<ellipse fill="#89ceb4" stroke="#89ceb4" cx="260.7203" cy="-817.7708" rx="4" ry="4"/>
</g>
</g>
</svg>
