<?xml version="1.0" encoding="UTF-8" standalone="no"?>
<!DOCTYPE svg PUBLIC "-//W3C//DTD SVG 1.1//EN"
 "http://www.w3.org/Graphics/SVG/1.1/DTD/svg11.dtd">
<!-- Generated by graphviz version 2.40.1 (20161225.0304)
 -->
<!-- Title: models_diagram Pages: 1 -->
<svg width="601pt" height="284pt"
 viewBox="0.00 0.00 600.72 284.00" xmlns="http://www.w3.org/2000/svg" xmlns:xlink="http://www.w3.org/1999/xlink">
<g id="graph0" class="graph" transform="scale(1 1) rotate(0) translate(4 280)">
<title>models_diagram</title>
<polygon fill="transparent" stroke="transparent" points="-4,4 -4,-280 596.7202,-280 596.7202,4 -4,4"/>
<!-- _diagram_info -->
<g id="node1" class="node">
<title>_diagram_info</title>
<text text-anchor="start" x="8" y="-261.6" font-family="Times,serif" font-size="13.00" fill="#000000">Models diagram</text>
<text text-anchor="start" x="8" y="-248.6" font-family="Times,serif" font-size="13.00" fill="#000000">Date: Jan 11 2018 &#45; 02:46</text>
<text text-anchor="start" x="8" y="-235.6" font-family="Times,serif" font-size="13.00" fill="#000000">Generated by RailRoady 1.5.3</text>
<text text-anchor="start" x="8" y="-222.6" font-family="Times,serif" font-size="13.00" fill="#000000">http://railroady.prestonlee.com</text>
</g>
<!-- Agent -->
<g id="node2" class="node">
<title>Agent</title>
<ellipse fill="none" stroke="#000000" cx="220.7202" cy="-162" rx="31.9393" ry="18"/>
<text text-anchor="middle" x="220.7202" y="-157.8" font-family="Times,serif" font-size="14.00" fill="#000000">Agent</text>
</g>
<!-- Comment -->
<g id="node3" class="node">
<title>Comment</title>
<ellipse fill="none" stroke="#000000" cx="124.7202" cy="-90" rx="44.9768" ry="18"/>
<text text-anchor="middle" x="124.7202" y="-85.8" font-family="Times,serif" font-size="14.00" fill="#000000">Comment</text>
</g>
<!-- Agent&#45;&gt;Comment -->
<g id="edge1" class="edge">
<title>Agent&#45;&gt;Comment</title>
<path fill="none" stroke="#b2d857" d="M194.5966,-142.4073C182.1186,-133.0488 167.1315,-121.8085 154.2423,-112.1416"/>
<ellipse fill="none" stroke="#b2d857" cx="198.0932" cy="-145.0297" rx="4" ry="4"/>
<polygon fill="#b2d857" stroke="#b2d857" points="154.1226,-112.0518 148.8226,-102.4518 150.1226,-109.0518 146.1226,-106.0518 146.1226,-106.0518 146.1226,-106.0518 150.1226,-109.0518 143.4226,-109.6518 154.1226,-112.0518 154.1226,-112.0518"/>
</g>
<!-- House -->
<g id="node6" class="node">
<title>House</title>
<ellipse fill="none" stroke="#000000" cx="220.7202" cy="-90" rx="32.9081" ry="18"/>
<text text-anchor="middle" x="220.7202" y="-85.8" font-family="Times,serif" font-size="14.00" fill="#000000">House</text>
</g>
<!-- Agent&#45;&gt;House -->
<g id="edge2" class="edge">
<title>Agent&#45;&gt;House</title>
<path fill="none" stroke="#7113d3" d="M214.2062,-135.9797C213.9235,-130.1431 213.8948,-123.9266 214.1201,-118.0128"/>
<ellipse fill="none" stroke="#7113d3" cx="214.5142" cy="-140.2128" rx="4" ry="4"/>
<polygon fill="#7113d3" stroke="#7113d3" points="214.1329,-117.8203 219.29,-108.1428 214.4664,-112.8314 214.8,-107.8425 214.8,-107.8425 214.8,-107.8425 214.4664,-112.8314 210.31,-107.5423 214.1329,-117.8203 214.1329,-117.8203"/>
</g>
<!-- Commentable -->
<g id="node10" class="node">
<title>Commentable</title>
<ellipse fill="none" stroke="#000000" cx="124.7202" cy="-18" rx="59.9357" ry="18"/>
<text text-anchor="middle" x="124.7202" y="-13.8" font-family="Times,serif" font-size="14.00" fill="#000000">Commentable</text>
</g>
<!-- Comment&#45;&gt;Commentable -->
<g id="edge3" class="edge">
<title>Comment&#45;&gt;Commentable</title>
<path fill="none" stroke="#eeac9b" d="M124.7202,-61.5726C124.7202,-56.6792 124.7202,-51.5904 124.7202,-46.6901"/>
<polygon fill="#eeac9b" stroke="#eeac9b" points="124.7203,-61.8314 120.2202,-71.8313 124.7203,-66.8314 124.7202,-71.8314 124.7202,-71.8314 124.7202,-71.8314 124.7203,-66.8314 129.2202,-71.8314 124.7203,-61.8314 124.7203,-61.8314"/>
<polygon fill="#eeac9b" stroke="#eeac9b" points="124.7203,-46.4133 129.2202,-36.4132 124.7203,-41.4133 124.7202,-36.4133 124.7202,-36.4133 124.7202,-36.4133 124.7203,-41.4133 120.2202,-36.4133 124.7203,-46.4133 124.7203,-46.4133"/>
</g>
<!-- Customer -->
<g id="node4" class="node">
<title>Customer</title>
<ellipse fill="none" stroke="#000000" cx="309.7202" cy="-246" rx="44.4923" ry="18"/>
<text text-anchor="middle" x="309.7202" y="-241.8" font-family="Times,serif" font-size="14.00" fill="#000000">Customer</text>
</g>
<!-- Helper -->
<g id="node5" class="node">
<title>Helper</title>
<ellipse fill="none" stroke="#000000" cx="406.7202" cy="-246" rx="34.3354" ry="18"/>
<text text-anchor="middle" x="406.7202" y="-241.8" font-family="Times,serif" font-size="14.00" fill="#000000">Helper</text>
</g>
<!-- House&#45;&gt;Agent -->
<g id="edge4" class="edge">
<title>House&#45;&gt;Agent</title>
<path fill="none" stroke="#70fdd4" d="M227.3227,-118.0762C227.5199,-123.2948 227.5194,-128.7473 227.3212,-133.9647"/>
<polygon fill="#70fdd4" stroke="#70fdd4" points="227.3058,-117.8204 231.1305,-107.5431 226.9731,-112.8315 226.6404,-107.8425 226.6404,-107.8425 226.6404,-107.8425 226.9731,-112.8315 222.1504,-108.142 227.3058,-117.8204 227.3058,-117.8204"/>
<polygon fill="#70fdd4" stroke="#70fdd4" points="227.3039,-134.2246 222.146,-143.9017 226.9699,-139.2134 226.6359,-144.2022 226.6359,-144.2022 226.6359,-144.2022 226.9699,-139.2134 231.1259,-144.5028 227.3039,-134.2246 227.3039,-134.2246"/>
</g>
<!-- Order -->
<g id="node7" class="node">
<title>Order</title>
<ellipse fill="none" stroke="#000000" cx="489.7202" cy="-246" rx="30.9619" ry="18"/>
<text text-anchor="middle" x="489.7202" y="-241.8" font-family="Times,serif" font-size="14.00" fill="#000000">Order</text>
</g>
<!-- Tip -->
<g id="node8" class="node">
<title>Tip</title>
<ellipse fill="none" stroke="#000000" cx="565.7202" cy="-246" rx="27" ry="18"/>
<text text-anchor="middle" x="565.7202" y="-241.8" font-family="Times,serif" font-size="14.00" fill="#000000">Tip</text>
</g>
<!-- User -->
<g id="node9" class="node">
<title>User</title>
<ellipse fill="none" stroke="#000000" cx="220.7202" cy="-246" rx="27" ry="18"/>
<text text-anchor="middle" x="220.7202" y="-241.8" font-family="Times,serif" font-size="14.00" fill="#000000">User</text>
</g>
<!-- User&#45;&gt;Agent -->
<g id="edge5" class="edge">
<title>User&#45;&gt;Agent</title>
<path fill="none" stroke="#c7d1e8" d="M220.7202,-219.7244C220.7202,-209.6894 220.7202,-198.2548 220.7202,-188.2246"/>
<ellipse fill="none" stroke="#c7d1e8" cx="220.7203" cy="-223.7733" rx="4" ry="4"/>
<ellipse fill="#c7d1e8" stroke="#c7d1e8" cx="220.7203" cy="-184.1912" rx="4" ry="4"/>
</g>
</g>
</svg>
